<svg width="830" height="254" xmlns="http://www.w3.org/2000/svg" xmlns:xlink="http://www.w3.org/1999/xlink" overflow="hidden"><defs><clipPath id="clip0"><rect x="225" y="304" width="830" height="254"/></clipPath></defs><g clip-path="url(#clip0)" transform="translate(-225 -304)"><path d="M305.902 390.626 284.711 449.708 327.484 449.708ZM795.312 362.501 887.5 362.501C892.513 362.501 896.24 363.608 898.681 365.821 901.123 368.035 902.344 370.932 902.344 374.513 902.344 378.093 901.107 380.974 898.633 383.155 896.159 385.336 892.448 386.427 887.5 386.427L855.859 386.427 855.859 490.431C855.859 496.42 854.525 500.863 851.855 503.761 849.186 506.658 845.735 508.106 841.504 508.106 837.207 508.106 833.707 506.641 831.006 503.712 828.304 500.782 826.953 496.355 826.953 490.431L826.953 386.427 795.312 386.427C790.364 386.427 786.686 385.336 784.277 383.155 781.868 380.974 780.664 378.093 780.664 374.513 780.664 370.802 781.917 367.872 784.424 365.723 786.93 363.575 790.56 362.501 795.312 362.501ZM679.304 362.501 755.867 362.501C760.489 362.501 763.924 363.526 766.17 365.577 768.416 367.628 769.539 370.313 769.539 373.634 769.539 377.019 768.416 379.737 766.17 381.788 763.924 383.839 760.489 384.864 755.867 384.864L690.535 384.864 690.535 420.02 750.691 420.02C755.118 420.02 758.422 421.013 760.603 422.999 762.784 424.985 763.875 427.605 763.875 430.86 763.875 434.115 762.801 436.768 760.652 438.819 758.504 440.87 755.183 441.895 750.691 441.895L690.535 441.895 690.535 482.618 758.113 482.618C762.67 482.618 766.105 483.676 768.416 485.792 770.727 487.908 771.883 490.723 771.883 494.239 771.883 497.625 770.727 500.375 768.416 502.491 766.105 504.607 762.67 505.665 758.113 505.665L679.304 505.665C672.989 505.665 668.448 504.265 665.681 501.466 662.914 498.666 661.531 494.141 661.531 487.891L661.531 380.274C661.531 376.108 662.15 372.706 663.386 370.069 664.623 367.432 666.56 365.512 669.197 364.307 671.834 363.103 675.203 362.501 679.304 362.501ZM971.094 360.059C979.883 360.059 987.484 361.15 993.896 363.331 1000.31 365.512 1005.63 368.409 1009.86 372.022 1014.09 375.636 1017.19 379.428 1019.14 383.399 1021.09 387.371 1022.07 391.244 1022.07 395.02 1022.07 398.471 1020.85 401.58 1018.41 404.347 1015.97 407.113 1012.92 408.497 1009.28 408.497 1005.96 408.497 1003.43 407.667 1001.71 406.007 999.984 404.347 998.112 401.628 996.094 397.852 993.489 392.449 990.364 388.233 986.719 385.206 983.073 382.179 977.213 380.665 969.14 380.665 961.653 380.665 955.615 382.309 951.025 385.597 946.435 388.884 944.14 392.839 944.14 397.462 944.14 400.326 944.922 402.8 946.484 404.884 948.047 406.967 950.195 408.757 952.929 410.255 955.664 411.752 958.431 412.924 961.23 413.77 964.03 414.617 968.652 415.854 975.097 417.481 983.17 419.369 990.478 421.453 997.021 423.731 1003.56 426.01 1009.13 428.777 1013.72 432.032 1018.31 435.287 1021.89 439.405 1024.46 444.386 1027.03 449.366 1028.32 455.47 1028.32 462.696 1028.32 471.355 1026.09 479.135 1021.63 486.036 1017.17 492.937 1010.64 498.341 1002.05 502.247 993.457 506.153 983.268 508.106 971.484 508.106 957.357 508.106 945.703 505.437 936.523 500.098 930.013 496.257 924.723 491.13 920.654 484.718 916.585 478.305 914.551 472.071 914.551 466.016 914.551 462.501 915.771 459.49 918.213 456.983 920.654 454.477 923.763 453.223 927.539 453.223 930.599 453.223 933.187 454.2 935.302 456.153 937.418 458.106 939.225 461.003 940.722 464.845 942.545 469.402 944.515 473.21 946.631 476.27 948.746 479.33 951.725 481.853 955.566 483.839 959.407 485.824 964.453 486.817 970.703 486.817 979.297 486.817 986.279 484.815 991.65 480.811 997.021 476.807 999.707 471.811 999.707 465.821 999.707 461.069 998.258 457.211 995.361 454.249 992.464 451.287 988.72 449.024 984.131 447.462 979.541 445.899 973.405 444.239 965.722 442.481 955.436 440.072 946.826 437.257 939.892 434.034 932.959 430.811 927.457 426.417 923.388 420.85 919.319 415.284 917.285 408.367 917.285 400.098 917.285 392.221 919.433 385.222 923.73 379.102 928.027 372.983 934.245 368.279 942.383 364.991 950.521 361.703 960.091 360.059 971.094 360.059ZM579.094 360.059C587.883 360.059 595.484 361.15 601.896 363.331 608.309 365.512 613.631 368.409 617.863 372.022 622.095 375.636 625.187 379.428 627.14 383.399 629.094 387.371 630.07 391.244 630.07 395.02 630.07 398.471 628.849 401.58 626.408 404.347 623.967 407.113 620.923 408.497 617.277 408.497 613.957 408.497 611.434 407.667 609.709 406.007 607.984 404.347 606.112 401.628 604.094 397.852 601.489 392.449 598.364 388.233 594.719 385.206 591.073 382.179 585.213 380.665 577.14 380.665 569.653 380.665 563.615 382.309 559.025 385.597 554.435 388.884 552.14 392.839 552.14 397.462 552.14 400.326 552.922 402.8 554.484 404.884 556.047 406.967 558.195 408.757 560.929 410.255 563.664 411.752 566.431 412.924 569.23 413.77 572.03 414.617 576.652 415.854 583.097 417.481 591.17 419.369 598.478 421.453 605.021 423.731 611.564 426.01 617.131 428.777 621.72 432.032 626.31 435.287 629.891 439.405 632.463 444.386 635.034 449.366 636.32 455.47 636.32 462.696 636.32 471.355 634.09 479.135 629.631 486.036 625.171 492.937 618.644 498.341 610.051 502.247 601.457 506.153 591.268 508.106 579.484 508.106 565.357 508.106 553.703 505.437 544.523 500.098 538.013 496.257 532.723 491.13 528.654 484.718 524.585 478.305 522.551 472.071 522.551 466.016 522.551 462.501 523.771 459.49 526.213 456.983 528.654 454.477 531.763 453.223 535.539 453.223 538.599 453.223 541.187 454.2 543.302 456.153 545.418 458.106 547.225 461.003 548.722 464.845 550.545 469.402 552.515 473.21 554.631 476.27 556.747 479.33 559.725 481.853 563.566 483.839 567.407 485.824 572.453 486.817 578.703 486.817 587.297 486.817 594.279 484.815 599.65 480.811 605.021 476.807 607.707 471.811 607.707 465.821 607.707 461.069 606.258 457.211 603.361 454.249 600.464 451.287 596.72 449.024 592.131 447.462 587.541 445.899 581.405 444.239 573.722 442.481 563.436 440.072 554.826 437.257 547.892 434.034 540.959 430.811 535.458 426.417 531.388 420.85 527.319 415.284 525.285 408.367 525.285 400.098 525.285 392.221 527.433 385.222 531.73 379.102 536.027 372.983 542.245 368.279 550.383 364.991 558.521 361.703 568.091 360.059 579.094 360.059ZM446.094 360.059C454.883 360.059 462.484 361.15 468.896 363.331 475.309 365.512 480.631 368.409 484.863 372.022 489.095 375.636 492.187 379.428 494.14 383.399 496.094 387.371 497.07 391.244 497.07 395.02 497.07 398.471 495.849 401.58 493.408 404.347 490.967 407.113 487.923 408.497 484.277 408.497 480.957 408.497 478.434 407.667 476.709 406.007 474.984 404.347 473.112 401.628 471.094 397.852 468.489 392.449 465.364 388.233 461.719 385.206 458.073 382.179 452.213 380.665 444.14 380.665 436.653 380.665 430.615 382.309 426.025 385.597 421.435 388.884 419.14 392.839 419.14 397.462 419.14 400.326 419.922 402.8 421.484 404.884 423.047 406.967 425.195 408.757 427.93 410.255 430.664 411.752 433.431 412.924 436.23 413.77 439.03 414.617 443.652 415.854 450.097 417.481 458.17 419.369 465.478 421.453 472.021 423.731 478.564 426.01 484.131 428.777 488.721 432.032 493.31 435.287 496.891 439.405 499.463 444.386 502.034 449.366 503.32 455.47 503.32 462.696 503.32 471.355 501.09 479.135 496.631 486.036 492.171 492.937 485.644 498.341 477.051 502.247 468.457 506.153 458.268 508.106 446.484 508.106 432.357 508.106 420.703 505.437 411.523 500.098 405.013 496.257 399.723 491.13 395.654 484.718 391.585 478.305 389.551 472.071 389.551 466.016 389.551 462.501 390.771 459.49 393.213 456.983 395.654 454.477 398.763 453.223 402.539 453.223 405.599 453.223 408.187 454.2 410.303 456.153 412.418 458.106 414.225 461.003 415.722 464.845 417.545 469.402 419.515 473.21 421.631 476.27 423.747 479.33 426.725 481.853 430.566 483.839 434.407 485.824 439.453 486.817 445.703 486.817 454.297 486.817 461.279 484.815 466.65 480.811 472.021 476.807 474.707 471.811 474.707 465.821 474.707 461.069 473.258 457.211 470.361 454.249 467.464 451.287 463.721 449.024 459.131 447.462 454.541 445.899 448.405 444.239 440.722 442.481 430.436 440.072 421.826 437.257 414.892 434.034 407.959 430.811 402.457 426.417 398.388 420.85 394.319 415.284 392.285 408.367 392.285 400.098 392.285 392.221 394.433 385.222 398.73 379.102 403.027 372.983 409.245 368.279 417.383 364.991 425.521 361.703 435.091 360.059 446.094 360.059ZM306.097 360.059C310.134 360.059 313.503 360.824 316.205 362.354 318.907 363.884 321.088 365.854 322.748 368.263 324.408 370.671 325.808 373.259 326.947 376.026 328.086 378.793 329.535 382.488 331.293 387.11L368.695 479.493C371.625 486.524 373.09 491.635 373.09 494.825 373.09 498.145 371.706 501.189 368.939 503.956 366.172 506.723 362.836 508.106 358.929 508.106 356.651 508.106 354.698 507.699 353.07 506.886 351.443 506.072 350.075 504.965 348.969 503.565 347.862 502.166 346.674 500.017 345.404 497.12 344.135 494.223 343.044 491.667 342.133 489.454L335.297 471.485 277.094 471.485 270.258 489.845C267.588 497.006 265.31 501.84 263.422 504.347 261.534 506.853 258.441 508.106 254.144 508.106 250.499 508.106 247.276 506.772 244.476 504.102 241.677 501.433 240.277 498.406 240.277 495.02 240.277 493.067 240.603 491.049 241.254 488.966 241.905 486.882 242.979 483.985 244.476 480.274L281.097 387.306C282.139 384.636 283.392 381.43 284.857 377.686 286.322 373.943 287.885 370.834 289.545 368.36 291.205 365.886 293.386 363.884 296.088 362.354 298.79 360.824 302.126 360.059 306.097 360.059Z" stroke="#0D0D0D" stroke-linejoin="round" stroke-miterlimit="10" fill="#FFFFFF" fill-rule="evenodd"/><text fill="#000000" fill-opacity="0" font-family="Arial,Arial_MSFontService,sans-serif" font-size="148.047" x="240.277" y="489.6">ASSETS</text></g></svg>