<svg width="118" height="172" xmlns="http://www.w3.org/2000/svg" xmlns:xlink="http://www.w3.org/1999/xlink" overflow="hidden"><defs><clipPath id="clip0"><rect x="581" y="274" width="118" height="172"/></clipPath></defs><g clip-path="url(#clip0)" transform="translate(-581 -274)"><path d="M638.734 333.671 624.642 372.96 653.086 372.96ZM638.864 313.344C641.548 313.344 643.789 313.853 645.585 314.87 647.382 315.888 648.832 317.197 649.936 318.799 651.04 320.401 651.971 322.122 652.729 323.962 653.486 325.802 654.45 328.259 655.619 331.333L680.491 392.768C682.44 397.443 683.414 400.842 683.414 402.963 683.414 405.171 682.494 407.195 680.654 409.035 678.814 410.875 676.595 411.795 673.997 411.795 672.482 411.795 671.183 411.525 670.101 410.984 669.018 410.442 668.109 409.706 667.373 408.776 666.637 407.845 665.847 406.416 665.003 404.49 664.159 402.563 663.433 400.864 662.827 399.392L658.281 387.442 619.576 387.442 615.03 399.651C613.255 404.414 611.74 407.628 610.484 409.295 609.229 410.962 607.172 411.795 604.315 411.795 601.891 411.795 599.747 410.908 597.886 409.133 596.024 407.358 595.093 405.345 595.093 403.093 595.093 401.794 595.31 400.452 595.743 399.067 596.176 397.681 596.89 395.755 597.886 393.287L622.239 331.463C622.932 329.688 623.765 327.556 624.739 325.066 625.713 322.577 626.752 320.509 627.856 318.864 628.96 317.219 630.411 315.888 632.207 314.87 634.004 313.853 636.223 313.344 638.864 313.344Z" stroke="#0D0D0D" stroke-linejoin="round" stroke-miterlimit="10" fill="#FFFFFF" fill-rule="evenodd"/><text fill="#000000" fill-opacity="0" font-family="Arial,Arial_MSFontService,sans-serif" font-size="98.4512" x="595.093" y="399.489">A</text></g></svg>