<svg width="840" height="108" xmlns="http://www.w3.org/2000/svg" xmlns:xlink="http://www.w3.org/1999/xlink" overflow="hidden"><defs><clipPath id="clip0"><rect x="220" y="221" width="840" height="108"/></clipPath></defs><g clip-path="url(#clip0)" transform="translate(-220 -221)"><path d="M262.312 259.622 253.835 283.255 270.945 283.255ZM992.882 248.372 996.476 248.372C998.637 248.372 1000.21 248.568 1001.18 248.958 1002.16 249.349 1002.88 250.052 1003.35 251.068 1003.82 252.083 1004.35 253.737 1004.95 256.029L1013.27 287.396 1021.59 256.029C1022.19 253.737 1022.73 252.083 1023.19 251.068 1023.66 250.052 1024.39 249.349 1025.36 248.958 1026.34 248.568 1027.91 248.372 1030.07 248.372L1033.66 248.372C1035.88 248.372 1037.63 248.808 1038.94 249.681 1040.24 250.553 1040.89 252.239 1040.89 254.739L1040.89 300.052C1040.89 302.239 1040.4 303.88 1039.43 304.974 1038.45 306.068 1037.14 306.614 1035.5 306.614 1033.96 306.614 1032.7 306.068 1031.71 304.974 1030.72 303.88 1030.23 302.239 1030.23 300.052L1030.23 260.521 1021.05 297.005C1020.45 299.375 1019.96 301.113 1019.58 302.22 1019.2 303.327 1018.51 304.336 1017.49 305.247 1016.48 306.159 1015.07 306.614 1013.27 306.614 1011.92 306.614 1010.77 306.322 1009.84 305.736 1008.9 305.15 1008.17 304.401 1007.65 303.489 1007.13 302.578 1006.72 301.569 1006.42 300.462 1006.12 299.355 1005.81 298.203 1005.5 297.005L996.32 260.521 996.32 300.052C996.32 302.239 995.831 303.88 994.855 304.974 993.878 306.068 992.583 306.614 990.968 306.614 989.405 306.614 988.129 306.074 987.14 304.993 986.15 303.913 985.655 302.266 985.655 300.052L985.655 254.739C985.655 252.239 986.307 250.553 987.609 249.681 988.911 248.808 990.669 248.372 992.882 248.372ZM939.273 248.372 969.898 248.372C971.747 248.372 973.12 248.782 974.019 249.603 974.917 250.423 975.366 251.497 975.366 252.825 975.366 254.18 974.917 255.267 974.019 256.087 973.12 256.907 971.747 257.318 969.898 257.318L943.765 257.318 943.765 271.38 967.827 271.38C969.598 271.38 970.92 271.777 971.792 272.572 972.665 273.366 973.101 274.414 973.101 275.716 973.101 277.018 972.671 278.079 971.812 278.9 970.952 279.72 969.624 280.13 967.827 280.13L943.765 280.13 943.765 296.419 970.796 296.419C972.619 296.419 973.993 296.842 974.917 297.689 975.842 298.535 976.304 299.661 976.304 301.068 976.304 302.422 975.842 303.522 974.917 304.368 973.993 305.215 972.619 305.638 970.796 305.638L939.273 305.638C936.747 305.638 934.93 305.078 933.823 303.958 932.717 302.838 932.163 301.029 932.163 298.529L932.163 255.482C932.163 253.815 932.411 252.454 932.905 251.4 933.4 250.345 934.175 249.577 935.23 249.095 936.284 248.613 937.632 248.372 939.273 248.372ZM882.476 248.372 919.351 248.372C921.356 248.372 922.847 248.815 923.823 249.7 924.8 250.586 925.288 251.745 925.288 253.177 925.288 254.609 924.793 255.762 923.804 256.634 922.814 257.506 921.33 257.943 919.351 257.943L906.695 257.943 906.695 299.544C906.695 301.94 906.161 303.717 905.093 304.876 904.025 306.035 902.645 306.614 900.952 306.614 899.234 306.614 897.834 306.029 896.753 304.857 895.672 303.685 895.132 301.914 895.132 299.544L895.132 257.943 882.476 257.943C880.497 257.943 879.025 257.506 878.062 256.634 877.098 255.762 876.616 254.609 876.616 253.177 876.616 251.693 877.118 250.521 878.12 249.661 879.123 248.802 880.575 248.372 882.476 248.372ZM658.476 248.372 695.351 248.372C697.356 248.372 698.847 248.815 699.823 249.7 700.8 250.586 701.288 251.745 701.288 253.177 701.288 254.609 700.794 255.762 699.804 256.634 698.814 257.506 697.33 257.943 695.351 257.943L682.695 257.943 682.695 299.544C682.695 301.94 682.161 303.717 681.093 304.876 680.025 306.035 678.645 306.614 676.952 306.614 675.234 306.614 673.834 306.029 672.753 304.857 671.672 303.685 671.132 301.914 671.132 299.544L671.132 257.943 658.476 257.943C656.497 257.943 655.025 257.506 654.062 256.634 653.098 255.762 652.616 254.609 652.616 253.177 652.616 251.693 653.118 250.521 654.12 249.661 655.123 248.802 656.575 248.372 658.476 248.372ZM534.882 248.372 538.476 248.372C540.637 248.372 542.206 248.568 543.183 248.958 544.159 249.349 544.882 250.052 545.351 251.068 545.82 252.083 546.353 253.737 546.952 256.029L555.273 287.396 563.593 256.029C564.192 253.737 564.726 252.083 565.195 251.068 565.663 250.052 566.386 249.349 567.363 248.958 568.339 248.568 569.908 248.372 572.07 248.372L575.663 248.372C577.877 248.372 579.635 248.808 580.937 249.681 582.239 250.553 582.89 252.239 582.89 254.739L582.89 300.052C582.89 302.239 582.402 303.88 581.425 304.974 580.448 306.068 579.14 306.614 577.499 306.614 575.963 306.614 574.7 306.068 573.71 304.974 572.721 303.88 572.226 302.239 572.226 300.052L572.226 260.521 563.046 297.005C562.447 299.375 561.959 301.113 561.581 302.22 561.204 303.327 560.507 304.336 559.491 305.247 558.476 306.159 557.07 306.614 555.273 306.614 553.918 306.614 552.773 306.322 551.835 305.736 550.898 305.15 550.169 304.401 549.648 303.489 549.127 302.578 548.717 301.569 548.417 300.462 548.118 299.355 547.812 298.203 547.499 297.005L538.32 260.521 538.32 300.052C538.32 302.239 537.831 303.88 536.855 304.974 535.878 306.068 534.583 306.614 532.968 306.614 531.405 306.614 530.129 306.074 529.14 304.993 528.15 303.913 527.655 302.266 527.655 300.052L527.655 254.739C527.655 252.239 528.307 250.553 529.609 249.681 530.911 248.808 532.669 248.372 534.882 248.372ZM458.476 248.372 495.351 248.372C497.356 248.372 498.847 248.815 499.823 249.7 500.8 250.586 501.288 251.745 501.288 253.177 501.288 254.609 500.794 255.762 499.804 256.634 498.814 257.506 497.33 257.943 495.351 257.943L482.695 257.943 482.695 299.544C482.695 301.94 482.161 303.717 481.093 304.876 480.025 306.035 478.645 306.614 476.952 306.614 475.234 306.614 473.834 306.029 472.753 304.857 471.672 303.685 471.132 301.914 471.132 299.544L471.132 257.943 458.476 257.943C456.497 257.943 455.025 257.506 454.062 256.634 453.098 255.762 452.616 254.609 452.616 253.177 452.616 251.693 453.118 250.521 454.12 249.661 455.123 248.802 456.575 248.372 458.476 248.372ZM411.273 248.372 441.898 248.372C443.747 248.372 445.12 248.782 446.019 249.603 446.917 250.423 447.366 251.497 447.366 252.825 447.366 254.18 446.917 255.267 446.019 256.087 445.12 256.907 443.747 257.318 441.898 257.318L415.765 257.318 415.765 271.38 439.827 271.38C441.598 271.38 442.92 271.777 443.792 272.572 444.665 273.366 445.101 274.414 445.101 275.716 445.101 277.018 444.671 278.079 443.812 278.9 442.952 279.72 441.624 280.13 439.827 280.13L415.765 280.13 415.765 296.419 442.796 296.419C444.619 296.419 445.993 296.842 446.917 297.689 447.842 298.535 448.304 299.661 448.304 301.068 448.304 302.422 447.842 303.522 446.917 304.368 445.993 305.215 444.619 305.638 442.796 305.638L411.273 305.638C408.747 305.638 406.93 305.078 405.823 303.958 404.717 302.838 404.163 301.029 404.163 298.529L404.163 255.482C404.163 253.815 404.411 252.454 404.905 251.4 405.4 250.345 406.175 249.577 407.23 249.095 408.284 248.613 409.632 248.372 411.273 248.372ZM849.788 247.396C853.304 247.396 856.344 247.832 858.909 248.704 861.474 249.577 863.603 250.736 865.296 252.181 866.989 253.626 868.226 255.143 869.007 256.732 869.788 258.32 870.179 259.87 870.179 261.38 870.179 262.76 869.691 264.004 868.714 265.111 867.737 266.217 866.52 266.771 865.062 266.771 863.734 266.771 862.724 266.439 862.034 265.775 861.344 265.111 860.596 264.023 859.788 262.513 858.747 260.351 857.497 258.665 856.038 257.454 854.58 256.243 852.236 255.638 849.007 255.638 846.012 255.638 843.597 256.295 841.761 257.611 839.925 258.926 839.007 260.508 839.007 262.357 839.007 263.503 839.32 264.492 839.945 265.325 840.57 266.159 841.429 266.875 842.523 267.474 843.616 268.073 844.723 268.542 845.843 268.88 846.963 269.219 848.812 269.713 851.39 270.364 854.619 271.12 857.542 271.953 860.159 272.864 862.777 273.776 865.003 274.883 866.839 276.185 868.675 277.487 870.107 279.134 871.136 281.126 872.165 283.118 872.679 285.56 872.679 288.45 872.679 291.914 871.787 295.026 870.003 297.786 868.219 300.547 865.609 302.708 862.171 304.271 858.734 305.833 854.658 306.614 849.945 306.614 844.293 306.614 839.632 305.547 835.96 303.411 833.356 301.875 831.24 299.824 829.612 297.259 827.985 294.694 827.171 292.2 827.171 289.779 827.171 288.372 827.659 287.168 828.636 286.165 829.612 285.163 830.856 284.661 832.366 284.661 833.59 284.661 834.625 285.052 835.472 285.833 836.318 286.614 837.041 287.773 837.64 289.31 838.369 291.133 839.157 292.656 840.003 293.88 840.849 295.104 842.041 296.113 843.577 296.907 845.114 297.702 847.132 298.099 849.632 298.099 853.07 298.099 855.862 297.298 858.011 295.697 860.159 294.095 861.234 292.096 861.234 289.7 861.234 287.799 860.654 286.256 859.495 285.072 858.336 283.887 856.839 282.982 855.003 282.357 853.167 281.732 850.713 281.068 847.64 280.364 843.525 279.401 840.081 278.275 837.308 276.986 834.534 275.697 832.334 273.939 830.706 271.712 829.079 269.486 828.265 266.719 828.265 263.411 828.265 260.26 829.124 257.461 830.843 255.013 832.562 252.565 835.049 250.683 838.304 249.368 841.559 248.053 845.387 247.396 849.788 247.396ZM781.945 247.396C783.533 247.396 784.737 247.845 785.558 248.743 786.378 249.642 787.609 251.432 789.249 254.114L799.952 271.497 810.773 254.114C811.424 253.047 811.971 252.148 812.413 251.419 812.856 250.69 813.344 250.006 813.878 249.368 814.412 248.73 815.004 248.242 815.655 247.904 816.307 247.565 817.101 247.396 818.038 247.396 819.497 247.396 820.714 247.871 821.691 248.822 822.667 249.772 823.155 250.872 823.155 252.122 823.155 253.138 822.908 254.154 822.413 255.169 821.919 256.185 821.072 257.591 819.874 259.388L805.538 281.38 805.538 299.544C805.538 301.914 804.991 303.685 803.898 304.857 802.804 306.029 801.411 306.614 799.718 306.614 797.999 306.614 796.606 306.035 795.538 304.876 794.471 303.717 793.937 301.94 793.937 299.544L793.937 281.38 779.952 259.7C778.728 257.747 777.862 256.224 777.355 255.13 776.847 254.036 776.593 253.086 776.593 252.279 776.593 250.95 777.107 249.805 778.136 248.841 779.165 247.878 780.434 247.396 781.945 247.396ZM748.788 247.396C752.304 247.396 755.344 247.832 757.909 248.704 760.474 249.577 762.603 250.736 764.296 252.181 765.989 253.626 767.226 255.143 768.007 256.732 768.788 258.32 769.179 259.87 769.179 261.38 769.179 262.76 768.691 264.004 767.714 265.111 766.737 266.217 765.52 266.771 764.062 266.771 762.734 266.771 761.724 266.439 761.034 265.775 760.344 265.111 759.596 264.023 758.788 262.513 757.747 260.351 756.497 258.665 755.038 257.454 753.58 256.243 751.236 255.638 748.007 255.638 745.012 255.638 742.597 256.295 740.761 257.611 738.925 258.926 738.007 260.508 738.007 262.357 738.007 263.503 738.32 264.492 738.945 265.325 739.57 266.159 740.429 266.875 741.523 267.474 742.616 268.073 743.723 268.542 744.843 268.88 745.963 269.219 747.812 269.713 750.39 270.364 753.619 271.12 756.542 271.953 759.159 272.864 761.777 273.776 764.003 274.883 765.839 276.185 767.675 277.487 769.107 279.134 770.136 281.126 771.165 283.118 771.679 285.56 771.679 288.45 771.679 291.914 770.787 295.026 769.003 297.786 767.219 300.547 764.609 302.708 761.171 304.271 757.734 305.833 753.658 306.614 748.945 306.614 743.293 306.614 738.632 305.547 734.96 303.411 732.356 301.875 730.24 299.824 728.612 297.259 726.985 294.694 726.171 292.2 726.171 289.779 726.171 288.372 726.659 287.168 727.636 286.165 728.612 285.163 729.856 284.661 731.366 284.661 732.59 284.661 733.626 285.052 734.472 285.833 735.318 286.614 736.041 287.773 736.64 289.31 737.369 291.133 738.157 292.656 739.003 293.88 739.849 295.104 741.041 296.113 742.577 296.907 744.114 297.702 746.132 298.099 748.632 298.099 752.07 298.099 754.862 297.298 757.011 295.697 759.159 294.095 760.234 292.096 760.234 289.7 760.234 287.799 759.654 286.256 758.495 285.072 757.336 283.887 755.839 282.982 754.003 282.357 752.167 281.732 749.713 281.068 746.64 280.364 742.525 279.401 739.081 278.275 736.308 276.986 733.534 275.697 731.334 273.939 729.706 271.712 728.079 269.486 727.265 266.719 727.265 263.411 727.265 260.26 728.124 257.461 729.843 255.013 731.562 252.565 734.049 250.683 737.304 249.368 740.559 248.053 744.387 247.396 748.788 247.396ZM621.663 247.396C625.517 247.396 628.929 247.91 631.898 248.939 634.866 249.967 637.275 251.263 639.124 252.825 640.973 254.388 642.366 256.042 643.304 257.786 644.241 259.531 644.71 261.081 644.71 262.435 644.71 263.893 644.17 265.137 643.089 266.165 642.008 267.194 640.713 267.708 639.202 267.708 638.369 267.708 637.568 267.513 636.8 267.122 636.032 266.732 635.387 266.185 634.866 265.482 633.434 263.242 632.223 261.549 631.234 260.404 630.244 259.258 628.909 258.294 627.23 257.513 625.55 256.732 623.408 256.341 620.804 256.341 618.122 256.341 615.726 256.803 613.616 257.728 611.507 258.652 609.704 259.993 608.206 261.751 606.709 263.509 605.563 265.664 604.769 268.216 603.974 270.768 603.577 273.594 603.577 276.693 603.577 283.411 605.12 288.581 608.206 292.2 611.292 295.82 615.596 297.63 621.116 297.63 623.799 297.63 626.318 297.279 628.675 296.575 631.032 295.872 633.421 294.87 635.843 293.568L635.843 284.271 626.859 284.271C624.697 284.271 623.063 283.945 621.956 283.294 620.849 282.643 620.296 281.536 620.296 279.974 620.296 278.698 620.758 277.643 621.683 276.81 622.607 275.976 623.864 275.56 625.452 275.56L638.616 275.56C640.231 275.56 641.598 275.703 642.718 275.989 643.838 276.276 644.743 276.914 645.433 277.904 646.123 278.893 646.468 280.378 646.468 282.357L646.468 293.333C646.468 294.792 646.325 295.957 646.038 296.829 645.752 297.702 645.224 298.489 644.456 299.193 643.688 299.896 642.705 300.573 641.507 301.224 638.044 303.099 634.71 304.466 631.507 305.325 628.304 306.185 624.814 306.614 621.038 306.614 616.637 306.614 612.627 305.937 609.007 304.583 605.387 303.229 602.301 301.263 599.749 298.685 597.197 296.107 595.238 292.982 593.87 289.31 592.503 285.638 591.82 281.536 591.82 277.005 591.82 272.552 592.484 268.476 593.812 264.779 595.14 261.081 597.093 257.943 599.671 255.364 602.249 252.786 605.387 250.814 609.085 249.447 612.783 248.079 616.976 247.396 621.663 247.396ZM371.788 247.396C375.304 247.396 378.344 247.832 380.909 248.704 383.474 249.577 385.603 250.736 387.296 252.181 388.989 253.626 390.226 255.143 391.007 256.732 391.788 258.32 392.179 259.87 392.179 261.38 392.179 262.76 391.691 264.004 390.714 265.111 389.738 266.217 388.52 266.771 387.062 266.771 385.734 266.771 384.724 266.439 384.034 265.775 383.344 265.111 382.596 264.023 381.788 262.513 380.747 260.351 379.497 258.665 378.038 257.454 376.58 256.243 374.236 255.638 371.007 255.638 368.012 255.638 365.597 256.295 363.761 257.611 361.925 258.926 361.007 260.508 361.007 262.357 361.007 263.503 361.32 264.492 361.945 265.325 362.57 266.159 363.429 266.875 364.523 267.474 365.616 268.073 366.723 268.542 367.843 268.88 368.963 269.219 370.812 269.713 373.39 270.364 376.619 271.12 379.542 271.953 382.159 272.864 384.777 273.776 387.003 274.883 388.839 276.185 390.675 277.487 392.107 279.134 393.136 281.126 394.165 283.118 394.679 285.56 394.679 288.45 394.679 291.914 393.787 295.026 392.003 297.786 390.219 300.547 387.609 302.708 384.171 304.271 380.734 305.833 376.658 306.614 371.945 306.614 366.294 306.614 361.632 305.547 357.96 303.411 355.356 301.875 353.24 299.824 351.613 297.259 349.985 294.694 349.171 292.2 349.171 289.779 349.171 288.372 349.659 287.168 350.636 286.165 351.613 285.163 352.856 284.661 354.366 284.661 355.59 284.661 356.626 285.052 357.472 285.833 358.318 286.614 359.041 287.773 359.64 289.31 360.369 291.133 361.157 292.656 362.003 293.88 362.849 295.104 364.041 296.113 365.577 296.907 367.114 297.702 369.132 298.099 371.632 298.099 375.07 298.099 377.863 297.298 380.011 295.697 382.159 294.095 383.234 292.096 383.234 289.7 383.234 287.799 382.654 286.256 381.495 285.072 380.336 283.887 378.839 282.982 377.003 282.357 375.167 281.732 372.713 281.068 369.64 280.364 365.525 279.401 362.081 278.275 359.308 276.986 356.534 275.697 354.334 273.939 352.706 271.712 351.079 269.486 350.265 266.719 350.265 263.411 350.265 260.26 351.124 257.461 352.843 255.013 354.562 252.565 357.049 250.683 360.304 249.368 363.559 248.053 367.387 247.396 371.788 247.396ZM318.788 247.396C322.304 247.396 325.344 247.832 327.909 248.704 330.474 249.577 332.603 250.736 334.296 252.181 335.989 253.626 337.226 255.143 338.007 256.732 338.788 258.32 339.179 259.87 339.179 261.38 339.179 262.76 338.691 264.004 337.714 265.111 336.738 266.217 335.52 266.771 334.062 266.771 332.734 266.771 331.724 266.439 331.034 265.775 330.344 265.111 329.596 264.023 328.788 262.513 327.747 260.351 326.497 258.665 325.038 257.454 323.58 256.243 321.236 255.638 318.007 255.638 315.012 255.638 312.597 256.295 310.761 257.611 308.925 258.926 308.007 260.508 308.007 262.357 308.007 263.503 308.32 264.492 308.945 265.325 309.57 266.159 310.429 266.875 311.523 267.474 312.616 268.073 313.723 268.542 314.843 268.88 315.963 269.219 317.812 269.713 320.39 270.364 323.619 271.12 326.542 271.953 329.159 272.864 331.777 273.776 334.003 274.883 335.839 276.185 337.675 277.487 339.107 279.134 340.136 281.126 341.165 283.118 341.679 285.56 341.679 288.45 341.679 291.914 340.787 295.026 339.003 297.786 337.219 300.547 334.609 302.708 331.171 304.271 327.734 305.833 323.658 306.614 318.945 306.614 313.294 306.614 308.632 305.547 304.96 303.411 302.356 301.875 300.24 299.824 298.613 297.259 296.985 294.694 296.171 292.2 296.171 289.779 296.171 288.372 296.659 287.168 297.636 286.165 298.613 285.163 299.856 284.661 301.366 284.661 302.59 284.661 303.626 285.052 304.472 285.833 305.318 286.614 306.041 287.773 306.64 289.31 307.369 291.133 308.157 292.656 309.003 293.88 309.849 295.104 311.041 296.113 312.577 296.907 314.114 297.702 316.132 298.099 318.632 298.099 322.07 298.099 324.863 297.298 327.011 295.697 329.159 294.095 330.234 292.096 330.234 289.7 330.234 287.799 329.654 286.256 328.495 285.072 327.336 283.887 325.839 282.982 324.003 282.357 322.167 281.732 319.713 281.068 316.64 280.364 312.525 279.401 309.081 278.275 306.308 276.986 303.534 275.697 301.334 273.939 299.706 271.712 298.079 269.486 297.265 266.719 297.265 263.411 297.265 260.26 298.124 257.461 299.843 255.013 301.562 252.565 304.049 250.683 307.304 249.368 310.559 248.053 314.387 247.396 318.788 247.396ZM262.39 247.396C264.004 247.396 265.352 247.702 266.433 248.314 267.514 248.926 268.386 249.713 269.05 250.677 269.714 251.641 270.274 252.676 270.73 253.782 271.185 254.889 271.765 256.367 272.468 258.216L287.429 295.169C288.601 297.982 289.187 300.026 289.187 301.302 289.187 302.63 288.633 303.848 287.527 304.954 286.42 306.061 285.085 306.614 283.523 306.614 282.611 306.614 281.83 306.452 281.179 306.126 280.528 305.801 279.981 305.358 279.538 304.798 279.096 304.238 278.62 303.379 278.113 302.22 277.605 301.061 277.169 300.039 276.804 299.154L274.07 291.966 250.788 291.966 248.054 299.31C246.986 302.174 246.075 304.108 245.32 305.111 244.564 306.113 243.327 306.614 241.609 306.614 240.15 306.614 238.861 306.081 237.741 305.013 236.622 303.945 236.062 302.734 236.062 301.38 236.062 300.599 236.192 299.792 236.452 298.958 236.713 298.125 237.142 296.966 237.741 295.482L252.39 258.294C252.807 257.226 253.308 255.944 253.894 254.447 254.48 252.949 255.105 251.706 255.769 250.716 256.433 249.726 257.305 248.926 258.386 248.314 259.467 247.702 260.801 247.396 262.39 247.396Z" stroke="#FFFFFF" stroke-linejoin="round" stroke-miterlimit="10" fill="none" fill-rule="evenodd"/><text fill="#000000" fill-opacity="0" font-family="Arial,Arial_MSFontService,sans-serif" font-size="59.2188" x="236.062" y="299.212">ASSET MGT SYSTEM</text></g></svg>